<mxfile host="app.diagrams.net" agent="Mozilla/5.0 (Windows NT 10.0; Win64; x64) AppleWebKit/537.36 (KHTML, like Gecko) Chrome/138.0.0.0 Safari/537.36" version="28.0.4">
  <diagram name="หน้า-1" id="Dvt078PsxnMLaXpAFxaM">
    <mxGraphModel dx="2253" dy="785" grid="1" gridSize="10" guides="1" tooltips="1" connect="1" arrows="1" fold="1" page="1" pageScale="1" pageWidth="827" pageHeight="1169" math="0" shadow="0">
      <root>
        <mxCell id="0" />
        <mxCell id="1" parent="0" />
        <mxCell id="xscEj_HbXm1MbE6J2uN--8" value="" style="edgeStyle=orthogonalEdgeStyle;rounded=0;orthogonalLoop=1;jettySize=auto;html=1;" edge="1" parent="1" source="Da7YzQmwuxjIGddgG6UM-1" target="xscEj_HbXm1MbE6J2uN--2">
          <mxGeometry relative="1" as="geometry" />
        </mxCell>
        <mxCell id="Da7YzQmwuxjIGddgG6UM-1" value="เริ่มต้น" style="ellipse;whiteSpace=wrap;html=1;shadow=0;" parent="1" vertex="1">
          <mxGeometry x="361" y="10" width="106" height="60" as="geometry" />
        </mxCell>
        <mxCell id="xscEj_HbXm1MbE6J2uN--7" value="" style="edgeStyle=orthogonalEdgeStyle;rounded=0;orthogonalLoop=1;jettySize=auto;html=1;" edge="1" parent="1" source="xscEj_HbXm1MbE6J2uN--2" target="xscEj_HbXm1MbE6J2uN--4">
          <mxGeometry relative="1" as="geometry" />
        </mxCell>
        <mxCell id="xscEj_HbXm1MbE6J2uN--2" value="ลูกค้าหยอดเงินเข้าตู้" style="rounded=0;whiteSpace=wrap;html=1;" vertex="1" parent="1">
          <mxGeometry x="354" y="90" width="120" height="60" as="geometry" />
        </mxCell>
        <mxCell id="xscEj_HbXm1MbE6J2uN--10" value="" style="edgeStyle=orthogonalEdgeStyle;rounded=0;orthogonalLoop=1;jettySize=auto;html=1;" edge="1" parent="1" source="xscEj_HbXm1MbE6J2uN--4" target="xscEj_HbXm1MbE6J2uN--9">
          <mxGeometry relative="1" as="geometry" />
        </mxCell>
        <mxCell id="xscEj_HbXm1MbE6J2uN--4" value="แสดงรายการสินค้าให้เลือก" style="rounded=0;whiteSpace=wrap;html=1;" vertex="1" parent="1">
          <mxGeometry x="354" y="170" width="120" height="60" as="geometry" />
        </mxCell>
        <mxCell id="xscEj_HbXm1MbE6J2uN--12" value="" style="edgeStyle=orthogonalEdgeStyle;rounded=0;orthogonalLoop=1;jettySize=auto;html=1;" edge="1" parent="1" source="xscEj_HbXm1MbE6J2uN--9" target="xscEj_HbXm1MbE6J2uN--11">
          <mxGeometry relative="1" as="geometry" />
        </mxCell>
        <mxCell id="xscEj_HbXm1MbE6J2uN--9" value="" style="ellipse;whiteSpace=wrap;html=1;aspect=fixed;shadow=0;fontStyle=0;gradientColor=none;perimeterSpacing=0;strokeColor=default;" vertex="1" parent="1">
          <mxGeometry x="404" y="260" width="20" height="20" as="geometry" />
        </mxCell>
        <mxCell id="xscEj_HbXm1MbE6J2uN--11" value="&lt;font style=&quot;font-size: 8px;&quot;&gt;ลูกค้าเลือกสินค้าประเภทน้ำ&lt;/font&gt;" style="rhombus;whiteSpace=wrap;html=1;" vertex="1" parent="1">
          <mxGeometry x="374" y="300" width="80" height="80" as="geometry" />
        </mxCell>
        <mxCell id="xscEj_HbXm1MbE6J2uN--15" value="" style="edgeStyle=orthogonalEdgeStyle;rounded=0;orthogonalLoop=1;jettySize=auto;html=1;curved=0;endArrow=none;endFill=0;" edge="1" parent="1" source="xscEj_HbXm1MbE6J2uN--14" target="xscEj_HbXm1MbE6J2uN--11">
          <mxGeometry relative="1" as="geometry" />
        </mxCell>
        <mxCell id="xscEj_HbXm1MbE6J2uN--17" value="" style="edgeStyle=orthogonalEdgeStyle;rounded=0;orthogonalLoop=1;jettySize=auto;html=1;" edge="1" parent="1" source="xscEj_HbXm1MbE6J2uN--14" target="xscEj_HbXm1MbE6J2uN--16">
          <mxGeometry relative="1" as="geometry" />
        </mxCell>
        <mxCell id="xscEj_HbXm1MbE6J2uN--14" value="&lt;font style=&quot;font-size: 8px;&quot;&gt;เท็จ&lt;/font&gt;" style="text;strokeColor=none;align=center;fillColor=none;html=1;verticalAlign=middle;whiteSpace=wrap;rounded=0;" vertex="1" parent="1">
          <mxGeometry x="474" y="325" width="20" height="30" as="geometry" />
        </mxCell>
        <mxCell id="xscEj_HbXm1MbE6J2uN--16" value="&lt;span style=&quot;font-size: 8px;&quot;&gt;โค้กกระป๋องละ&amp;nbsp;&lt;/span&gt;&lt;div&gt;&lt;span style=&quot;font-size: 8px;&quot;&gt;10 บาท&lt;/span&gt;&lt;/div&gt;" style="rhombus;whiteSpace=wrap;html=1;" vertex="1" parent="1">
          <mxGeometry x="510" y="300" width="80" height="80" as="geometry" />
        </mxCell>
        <mxCell id="4IS577gCBCf__Y-hQEl2-47" style="edgeStyle=orthogonalEdgeStyle;rounded=0;orthogonalLoop=1;jettySize=auto;html=1;exitX=0.5;exitY=1;exitDx=0;exitDy=0;entryX=1;entryY=0.5;entryDx=0;entryDy=0;" edge="1" parent="1" source="xscEj_HbXm1MbE6J2uN--18" target="4IS577gCBCf__Y-hQEl2-24">
          <mxGeometry relative="1" as="geometry" />
        </mxCell>
        <mxCell id="xscEj_HbXm1MbE6J2uN--18" value="เอา" style="rounded=0;whiteSpace=wrap;html=1;" vertex="1" parent="1">
          <mxGeometry x="440" y="430" width="80" height="40" as="geometry" />
        </mxCell>
        <mxCell id="xscEj_HbXm1MbE6J2uN--25" value="" style="edgeStyle=orthogonalEdgeStyle;rounded=0;orthogonalLoop=1;jettySize=auto;html=1;endArrow=none;endFill=0;" edge="1" parent="1" source="xscEj_HbXm1MbE6J2uN--20" target="xscEj_HbXm1MbE6J2uN--16">
          <mxGeometry relative="1" as="geometry">
            <Array as="points">
              <mxPoint x="550" y="390" />
            </Array>
          </mxGeometry>
        </mxCell>
        <mxCell id="xscEj_HbXm1MbE6J2uN--30" style="edgeStyle=orthogonalEdgeStyle;rounded=0;orthogonalLoop=1;jettySize=auto;html=1;exitX=0;exitY=0.5;exitDx=0;exitDy=0;entryX=0.5;entryY=0;entryDx=0;entryDy=0;curved=1;" edge="1" parent="1" source="xscEj_HbXm1MbE6J2uN--20" target="xscEj_HbXm1MbE6J2uN--18">
          <mxGeometry relative="1" as="geometry">
            <Array as="points">
              <mxPoint x="480" y="390" />
            </Array>
          </mxGeometry>
        </mxCell>
        <mxCell id="xscEj_HbXm1MbE6J2uN--20" value="จริง" style="text;strokeColor=none;align=center;fillColor=none;html=1;verticalAlign=middle;whiteSpace=wrap;rounded=0;" vertex="1" parent="1">
          <mxGeometry x="490" y="380" width="30" height="20" as="geometry" />
        </mxCell>
        <mxCell id="xscEj_HbXm1MbE6J2uN--29" value="" style="edgeStyle=orthogonalEdgeStyle;rounded=0;orthogonalLoop=1;jettySize=auto;html=1;endArrow=none;endFill=0;" edge="1" parent="1" source="xscEj_HbXm1MbE6J2uN--28" target="xscEj_HbXm1MbE6J2uN--20">
          <mxGeometry relative="1" as="geometry" />
        </mxCell>
        <mxCell id="xscEj_HbXm1MbE6J2uN--32" style="edgeStyle=orthogonalEdgeStyle;rounded=0;orthogonalLoop=1;jettySize=auto;html=1;entryX=0.5;entryY=0;entryDx=0;entryDy=0;curved=1;" edge="1" parent="1">
          <mxGeometry relative="1" as="geometry">
            <mxPoint x="610" y="390" as="sourcePoint" />
            <mxPoint x="640" y="430" as="targetPoint" />
            <Array as="points">
              <mxPoint x="640" y="390" />
            </Array>
          </mxGeometry>
        </mxCell>
        <mxCell id="xscEj_HbXm1MbE6J2uN--28" value="เท็จ" style="text;strokeColor=none;align=center;fillColor=none;html=1;verticalAlign=middle;whiteSpace=wrap;rounded=0;" vertex="1" parent="1">
          <mxGeometry x="580" y="380" width="30" height="20" as="geometry" />
        </mxCell>
        <mxCell id="xscEj_HbXm1MbE6J2uN--33" value="&lt;font style=&quot;font-size: 7px;&quot;&gt;น้ำเขียวกระป๋องละ&amp;nbsp;&lt;/font&gt;&lt;div&gt;&lt;font style=&quot;font-size: 7px;&quot;&gt;12 บาท&lt;/font&gt;&lt;/div&gt;" style="rhombus;whiteSpace=wrap;html=1;" vertex="1" parent="1">
          <mxGeometry x="600" y="430" width="80" height="70" as="geometry" />
        </mxCell>
        <mxCell id="xscEj_HbXm1MbE6J2uN--34" value="" style="endArrow=none;html=1;rounded=0;" edge="1" parent="1">
          <mxGeometry width="50" height="50" relative="1" as="geometry">
            <mxPoint x="610" y="500" as="sourcePoint" />
            <mxPoint x="670" y="500" as="targetPoint" />
          </mxGeometry>
        </mxCell>
        <mxCell id="4IS577gCBCf__Y-hQEl2-8" value="" style="edgeStyle=orthogonalEdgeStyle;rounded=0;orthogonalLoop=1;jettySize=auto;html=1;" edge="1" parent="1" source="xscEj_HbXm1MbE6J2uN--35" target="4IS577gCBCf__Y-hQEl2-7">
          <mxGeometry relative="1" as="geometry">
            <Array as="points">
              <mxPoint x="570" y="500" />
              <mxPoint x="570" y="500" />
            </Array>
          </mxGeometry>
        </mxCell>
        <mxCell id="xscEj_HbXm1MbE6J2uN--35" value="จริง" style="text;strokeColor=none;align=center;fillColor=none;html=1;verticalAlign=middle;whiteSpace=wrap;rounded=0;" vertex="1" parent="1">
          <mxGeometry x="580" y="490" width="30" height="20" as="geometry" />
        </mxCell>
        <mxCell id="4IS577gCBCf__Y-hQEl2-2" value="" style="edgeStyle=orthogonalEdgeStyle;rounded=0;orthogonalLoop=1;jettySize=auto;html=1;" edge="1" parent="1" source="xscEj_HbXm1MbE6J2uN--36" target="4IS577gCBCf__Y-hQEl2-1">
          <mxGeometry relative="1" as="geometry">
            <Array as="points">
              <mxPoint x="730" y="500" />
              <mxPoint x="730" y="500" />
            </Array>
          </mxGeometry>
        </mxCell>
        <mxCell id="xscEj_HbXm1MbE6J2uN--36" value="เท็จ" style="text;strokeColor=none;align=center;fillColor=none;html=1;verticalAlign=middle;whiteSpace=wrap;rounded=0;" vertex="1" parent="1">
          <mxGeometry x="670" y="490" width="30" height="20" as="geometry" />
        </mxCell>
        <mxCell id="4IS577gCBCf__Y-hQEl2-1" value="อเมริกาโน่&lt;div&gt;30 บาท&lt;/div&gt;" style="rhombus;whiteSpace=wrap;html=1;" vertex="1" parent="1">
          <mxGeometry x="700" y="500" width="80" height="80" as="geometry" />
        </mxCell>
        <mxCell id="4IS577gCBCf__Y-hQEl2-3" value="" style="endArrow=none;html=1;rounded=0;" edge="1" parent="1">
          <mxGeometry width="50" height="50" relative="1" as="geometry">
            <mxPoint x="705" y="580" as="sourcePoint" />
            <mxPoint x="890" y="580" as="targetPoint" />
          </mxGeometry>
        </mxCell>
        <mxCell id="4IS577gCBCf__Y-hQEl2-6" value="" style="edgeStyle=orthogonalEdgeStyle;rounded=0;orthogonalLoop=1;jettySize=auto;html=1;" edge="1" parent="1" source="4IS577gCBCf__Y-hQEl2-4" target="4IS577gCBCf__Y-hQEl2-5">
          <mxGeometry relative="1" as="geometry" />
        </mxCell>
        <mxCell id="4IS577gCBCf__Y-hQEl2-4" value="จริง" style="text;strokeColor=none;align=center;fillColor=none;html=1;verticalAlign=middle;whiteSpace=wrap;rounded=0;" vertex="1" parent="1">
          <mxGeometry x="680" y="570" width="30" height="20" as="geometry" />
        </mxCell>
        <mxCell id="4IS577gCBCf__Y-hQEl2-49" style="edgeStyle=orthogonalEdgeStyle;rounded=0;orthogonalLoop=1;jettySize=auto;html=1;exitX=0.5;exitY=1;exitDx=0;exitDy=0;entryX=1;entryY=0.5;entryDx=0;entryDy=0;" edge="1" parent="1" source="4IS577gCBCf__Y-hQEl2-5" target="4IS577gCBCf__Y-hQEl2-24">
          <mxGeometry relative="1" as="geometry">
            <Array as="points">
              <mxPoint x="695" y="670" />
              <mxPoint x="530" y="670" />
              <mxPoint x="530" y="520" />
            </Array>
          </mxGeometry>
        </mxCell>
        <mxCell id="4IS577gCBCf__Y-hQEl2-5" value="เอา" style="rounded=0;whiteSpace=wrap;html=1;" vertex="1" parent="1">
          <mxGeometry x="655" y="620" width="80" height="40" as="geometry" />
        </mxCell>
        <mxCell id="4IS577gCBCf__Y-hQEl2-48" style="edgeStyle=orthogonalEdgeStyle;rounded=0;orthogonalLoop=1;jettySize=auto;html=1;exitX=0.5;exitY=1;exitDx=0;exitDy=0;entryX=1;entryY=0.5;entryDx=0;entryDy=0;" edge="1" parent="1" target="4IS577gCBCf__Y-hQEl2-24">
          <mxGeometry relative="1" as="geometry">
            <mxPoint x="435" y="520" as="targetPoint" />
            <mxPoint x="575" y="570" as="sourcePoint" />
            <Array as="points">
              <mxPoint x="530" y="570" />
              <mxPoint x="530" y="520" />
            </Array>
          </mxGeometry>
        </mxCell>
        <mxCell id="4IS577gCBCf__Y-hQEl2-7" value="เอา" style="rounded=0;whiteSpace=wrap;html=1;" vertex="1" parent="1">
          <mxGeometry x="530" y="530" width="80" height="40" as="geometry" />
        </mxCell>
        <mxCell id="4IS577gCBCf__Y-hQEl2-11" style="edgeStyle=orthogonalEdgeStyle;rounded=0;orthogonalLoop=1;jettySize=auto;html=1;entryX=0.5;entryY=0;entryDx=0;entryDy=0;" edge="1" parent="1" source="4IS577gCBCf__Y-hQEl2-9" target="4IS577gCBCf__Y-hQEl2-10">
          <mxGeometry relative="1" as="geometry">
            <Array as="points">
              <mxPoint x="960" y="580" />
              <mxPoint x="960" y="580" />
            </Array>
          </mxGeometry>
        </mxCell>
        <mxCell id="4IS577gCBCf__Y-hQEl2-9" value="เท็จ" style="text;strokeColor=none;align=center;fillColor=none;html=1;verticalAlign=middle;whiteSpace=wrap;rounded=0;" vertex="1" parent="1">
          <mxGeometry x="890" y="570" width="30" height="20" as="geometry" />
        </mxCell>
        <mxCell id="4IS577gCBCf__Y-hQEl2-10" value="ลาเต้ หวาน&amp;nbsp;&lt;div&gt;35 บาท&lt;/div&gt;" style="rhombus;whiteSpace=wrap;html=1;" vertex="1" parent="1">
          <mxGeometry x="930" y="580" width="80" height="80" as="geometry" />
        </mxCell>
        <mxCell id="4IS577gCBCf__Y-hQEl2-12" value="" style="endArrow=none;html=1;rounded=0;" edge="1" parent="1">
          <mxGeometry width="50" height="50" relative="1" as="geometry">
            <mxPoint x="850" y="660" as="sourcePoint" />
            <mxPoint x="1090" y="660" as="targetPoint" />
          </mxGeometry>
        </mxCell>
        <mxCell id="4IS577gCBCf__Y-hQEl2-18" value="" style="edgeStyle=orthogonalEdgeStyle;rounded=0;orthogonalLoop=1;jettySize=auto;html=1;" edge="1" parent="1" source="4IS577gCBCf__Y-hQEl2-13" target="4IS577gCBCf__Y-hQEl2-16">
          <mxGeometry relative="1" as="geometry" />
        </mxCell>
        <mxCell id="4IS577gCBCf__Y-hQEl2-13" value="จริง" style="text;strokeColor=none;align=center;fillColor=none;html=1;verticalAlign=middle;whiteSpace=wrap;rounded=0;" vertex="1" parent="1">
          <mxGeometry x="820" y="650" width="30" height="20" as="geometry" />
        </mxCell>
        <mxCell id="4IS577gCBCf__Y-hQEl2-14" value="เท็จ" style="text;strokeColor=none;align=center;fillColor=none;html=1;verticalAlign=middle;whiteSpace=wrap;rounded=0;" vertex="1" parent="1">
          <mxGeometry x="890" y="570" width="30" height="20" as="geometry" />
        </mxCell>
        <mxCell id="4IS577gCBCf__Y-hQEl2-19" value="" style="edgeStyle=orthogonalEdgeStyle;rounded=0;orthogonalLoop=1;jettySize=auto;html=1;" edge="1" parent="1" source="4IS577gCBCf__Y-hQEl2-15" target="4IS577gCBCf__Y-hQEl2-17">
          <mxGeometry relative="1" as="geometry" />
        </mxCell>
        <mxCell id="4IS577gCBCf__Y-hQEl2-15" value="เท็จ" style="text;strokeColor=none;align=center;fillColor=none;html=1;verticalAlign=middle;whiteSpace=wrap;rounded=0;" vertex="1" parent="1">
          <mxGeometry x="1090" y="650" width="30" height="20" as="geometry" />
        </mxCell>
        <mxCell id="4IS577gCBCf__Y-hQEl2-16" value="ไม่เอา" style="rounded=0;whiteSpace=wrap;html=1;" vertex="1" parent="1">
          <mxGeometry x="795" y="700" width="80" height="40" as="geometry" />
        </mxCell>
        <mxCell id="4IS577gCBCf__Y-hQEl2-50" style="edgeStyle=orthogonalEdgeStyle;rounded=0;orthogonalLoop=1;jettySize=auto;html=1;exitX=0.5;exitY=1;exitDx=0;exitDy=0;entryX=1;entryY=0.5;entryDx=0;entryDy=0;" edge="1" parent="1" source="4IS577gCBCf__Y-hQEl2-17" target="4IS577gCBCf__Y-hQEl2-24">
          <mxGeometry relative="1" as="geometry">
            <Array as="points">
              <mxPoint x="650" y="740" />
              <mxPoint x="650" y="670" />
              <mxPoint x="530" y="670" />
              <mxPoint x="530" y="520" />
            </Array>
          </mxGeometry>
        </mxCell>
        <mxCell id="4IS577gCBCf__Y-hQEl2-17" value="เอา" style="rounded=0;whiteSpace=wrap;html=1;" vertex="1" parent="1">
          <mxGeometry x="1065" y="700" width="80" height="40" as="geometry" />
        </mxCell>
        <mxCell id="4IS577gCBCf__Y-hQEl2-23" value="" style="edgeStyle=orthogonalEdgeStyle;rounded=0;orthogonalLoop=1;jettySize=auto;html=1;endArrow=none;endFill=0;" edge="1" parent="1" source="4IS577gCBCf__Y-hQEl2-21" target="xscEj_HbXm1MbE6J2uN--11">
          <mxGeometry relative="1" as="geometry" />
        </mxCell>
        <mxCell id="4IS577gCBCf__Y-hQEl2-25" style="edgeStyle=orthogonalEdgeStyle;rounded=0;orthogonalLoop=1;jettySize=auto;html=1;exitX=0.5;exitY=1;exitDx=0;exitDy=0;entryX=0.5;entryY=0;entryDx=0;entryDy=0;" edge="1" parent="1" source="4IS577gCBCf__Y-hQEl2-21" target="4IS577gCBCf__Y-hQEl2-24">
          <mxGeometry relative="1" as="geometry" />
        </mxCell>
        <mxCell id="4IS577gCBCf__Y-hQEl2-21" value="จริง" style="text;strokeColor=none;align=center;fillColor=none;html=1;verticalAlign=middle;whiteSpace=wrap;rounded=0;" vertex="1" parent="1">
          <mxGeometry x="399" y="400" width="30" height="20" as="geometry" />
        </mxCell>
        <mxCell id="4IS577gCBCf__Y-hQEl2-27" value="" style="edgeStyle=orthogonalEdgeStyle;rounded=0;orthogonalLoop=1;jettySize=auto;html=1;" edge="1" parent="1" source="4IS577gCBCf__Y-hQEl2-24" target="4IS577gCBCf__Y-hQEl2-26">
          <mxGeometry relative="1" as="geometry" />
        </mxCell>
        <mxCell id="4IS577gCBCf__Y-hQEl2-24" value="" style="ellipse;whiteSpace=wrap;html=1;aspect=fixed;shadow=0;fontStyle=0;gradientColor=none;perimeterSpacing=0;strokeColor=default;" vertex="1" parent="1">
          <mxGeometry x="404" y="510" width="20" height="20" as="geometry" />
        </mxCell>
        <mxCell id="4IS577gCBCf__Y-hQEl2-29" value="" style="edgeStyle=orthogonalEdgeStyle;rounded=0;orthogonalLoop=1;jettySize=auto;html=1;" edge="1" parent="1" source="4IS577gCBCf__Y-hQEl2-26" target="4IS577gCBCf__Y-hQEl2-28">
          <mxGeometry relative="1" as="geometry" />
        </mxCell>
        <mxCell id="4IS577gCBCf__Y-hQEl2-26" value="รวมราคาสินค้าทั้งหมด" style="rounded=0;whiteSpace=wrap;html=1;" vertex="1" parent="1">
          <mxGeometry x="374" y="560" width="80" height="40" as="geometry" />
        </mxCell>
        <mxCell id="4IS577gCBCf__Y-hQEl2-32" value="" style="edgeStyle=orthogonalEdgeStyle;rounded=0;orthogonalLoop=1;jettySize=auto;html=1;endArrow=none;endFill=0;" edge="1" parent="1" source="4IS577gCBCf__Y-hQEl2-28" target="4IS577gCBCf__Y-hQEl2-31">
          <mxGeometry relative="1" as="geometry" />
        </mxCell>
        <mxCell id="4IS577gCBCf__Y-hQEl2-37" value="" style="edgeStyle=orthogonalEdgeStyle;rounded=0;orthogonalLoop=1;jettySize=auto;html=1;" edge="1" parent="1" source="4IS577gCBCf__Y-hQEl2-28" target="4IS577gCBCf__Y-hQEl2-36">
          <mxGeometry relative="1" as="geometry" />
        </mxCell>
        <mxCell id="4IS577gCBCf__Y-hQEl2-41" value="จริง" style="edgeLabel;html=1;align=center;verticalAlign=middle;resizable=0;points=[];" vertex="1" connectable="0" parent="4IS577gCBCf__Y-hQEl2-37">
          <mxGeometry x="-0.24" relative="1" as="geometry">
            <mxPoint as="offset" />
          </mxGeometry>
        </mxCell>
        <mxCell id="4IS577gCBCf__Y-hQEl2-28" value="จำนวนเงิน" style="rhombus;whiteSpace=wrap;html=1;" vertex="1" parent="1">
          <mxGeometry x="374" y="640" width="80" height="80" as="geometry" />
        </mxCell>
        <mxCell id="4IS577gCBCf__Y-hQEl2-34" style="edgeStyle=orthogonalEdgeStyle;rounded=0;orthogonalLoop=1;jettySize=auto;html=1;exitX=0;exitY=0.5;exitDx=0;exitDy=0;" edge="1" parent="1" source="4IS577gCBCf__Y-hQEl2-30">
          <mxGeometry relative="1" as="geometry">
            <mxPoint x="584" y="769.77" as="sourcePoint" />
            <mxPoint x="404" y="269.77000000000004" as="targetPoint" />
            <Array as="points">
              <mxPoint x="524" y="750" />
              <mxPoint x="320" y="750" />
              <mxPoint x="320" y="270" />
            </Array>
          </mxGeometry>
        </mxCell>
        <mxCell id="4IS577gCBCf__Y-hQEl2-30" value="เงินไม่พอเลือกสินค้าใหม่" style="rounded=0;whiteSpace=wrap;html=1;" vertex="1" parent="1">
          <mxGeometry x="524" y="710" width="120" height="60" as="geometry" />
        </mxCell>
        <mxCell id="4IS577gCBCf__Y-hQEl2-33" style="edgeStyle=orthogonalEdgeStyle;rounded=0;orthogonalLoop=1;jettySize=auto;html=1;entryX=0.5;entryY=0;entryDx=0;entryDy=0;" edge="1" parent="1">
          <mxGeometry relative="1" as="geometry">
            <mxPoint x="524" y="680" as="sourcePoint" />
            <mxPoint x="585" y="710" as="targetPoint" />
          </mxGeometry>
        </mxCell>
        <mxCell id="4IS577gCBCf__Y-hQEl2-31" value="เท็จ" style="text;strokeColor=none;align=center;fillColor=none;html=1;verticalAlign=middle;whiteSpace=wrap;rounded=0;" vertex="1" parent="1">
          <mxGeometry x="494" y="670" width="30" height="20" as="geometry" />
        </mxCell>
        <mxCell id="4IS577gCBCf__Y-hQEl2-53" style="edgeStyle=orthogonalEdgeStyle;rounded=0;orthogonalLoop=1;jettySize=auto;html=1;exitX=0.5;exitY=1;exitDx=0;exitDy=0;entryX=0.5;entryY=0;entryDx=0;entryDy=0;" edge="1" parent="1" source="4IS577gCBCf__Y-hQEl2-36" target="4IS577gCBCf__Y-hQEl2-52">
          <mxGeometry relative="1" as="geometry" />
        </mxCell>
        <mxCell id="4IS577gCBCf__Y-hQEl2-36" value="จำนวนสินค้าทั้งหมด" style="rounded=0;whiteSpace=wrap;html=1;" vertex="1" parent="1">
          <mxGeometry x="354" y="770" width="120" height="60" as="geometry" />
        </mxCell>
        <mxCell id="4IS577gCBCf__Y-hQEl2-55" value="" style="edgeStyle=orthogonalEdgeStyle;rounded=0;orthogonalLoop=1;jettySize=auto;html=1;" edge="1" parent="1" source="4IS577gCBCf__Y-hQEl2-52" target="4IS577gCBCf__Y-hQEl2-54">
          <mxGeometry relative="1" as="geometry" />
        </mxCell>
        <mxCell id="4IS577gCBCf__Y-hQEl2-52" value="" style="ellipse;whiteSpace=wrap;html=1;aspect=fixed;shadow=0;fontStyle=0;gradientColor=none;perimeterSpacing=0;strokeColor=default;" vertex="1" parent="1">
          <mxGeometry x="404" y="850" width="20" height="20" as="geometry" />
        </mxCell>
        <mxCell id="4IS577gCBCf__Y-hQEl2-57" value="" style="edgeStyle=orthogonalEdgeStyle;rounded=0;orthogonalLoop=1;jettySize=auto;html=1;" edge="1" parent="1" source="4IS577gCBCf__Y-hQEl2-54" target="4IS577gCBCf__Y-hQEl2-56">
          <mxGeometry relative="1" as="geometry" />
        </mxCell>
        <mxCell id="4IS577gCBCf__Y-hQEl2-58" value="จริง" style="edgeLabel;html=1;align=center;verticalAlign=middle;resizable=0;points=[];" vertex="1" connectable="0" parent="4IS577gCBCf__Y-hQEl2-57">
          <mxGeometry x="-0.64" relative="1" as="geometry">
            <mxPoint as="offset" />
          </mxGeometry>
        </mxCell>
        <mxCell id="4IS577gCBCf__Y-hQEl2-77" style="edgeStyle=orthogonalEdgeStyle;rounded=0;orthogonalLoop=1;jettySize=auto;html=1;entryX=0.5;entryY=0;entryDx=0;entryDy=0;" edge="1" parent="1" source="4IS577gCBCf__Y-hQEl2-54" target="4IS577gCBCf__Y-hQEl2-76">
          <mxGeometry relative="1" as="geometry">
            <Array as="points">
              <mxPoint x="290" y="930" />
              <mxPoint x="290" y="930" />
            </Array>
          </mxGeometry>
        </mxCell>
        <mxCell id="4IS577gCBCf__Y-hQEl2-87" value="เท็จ" style="edgeLabel;html=1;align=center;verticalAlign=middle;resizable=0;points=[];" vertex="1" connectable="0" parent="4IS577gCBCf__Y-hQEl2-77">
          <mxGeometry x="-0.1713" relative="1" as="geometry">
            <mxPoint as="offset" />
          </mxGeometry>
        </mxCell>
        <mxCell id="4IS577gCBCf__Y-hQEl2-54" value="&lt;font style=&quot;font-size: 8px;&quot;&gt;ลูกค้าเลือกสินค้าประเภทขนม&lt;/font&gt;" style="rhombus;whiteSpace=wrap;html=1;" vertex="1" parent="1">
          <mxGeometry x="374" y="890" width="80" height="80" as="geometry" />
        </mxCell>
        <mxCell id="4IS577gCBCf__Y-hQEl2-60" value="" style="edgeStyle=orthogonalEdgeStyle;rounded=0;orthogonalLoop=1;jettySize=auto;html=1;" edge="1" parent="1" source="4IS577gCBCf__Y-hQEl2-56" target="4IS577gCBCf__Y-hQEl2-59">
          <mxGeometry relative="1" as="geometry" />
        </mxCell>
        <mxCell id="4IS577gCBCf__Y-hQEl2-56" value="" style="ellipse;whiteSpace=wrap;html=1;aspect=fixed;shadow=0;fontStyle=0;gradientColor=none;perimeterSpacing=0;strokeColor=default;" vertex="1" parent="1">
          <mxGeometry x="404" y="1000" width="20" height="20" as="geometry" />
        </mxCell>
        <mxCell id="4IS577gCBCf__Y-hQEl2-62" value="" style="edgeStyle=orthogonalEdgeStyle;rounded=0;orthogonalLoop=1;jettySize=auto;html=1;" edge="1" parent="1" source="4IS577gCBCf__Y-hQEl2-59" target="4IS577gCBCf__Y-hQEl2-61">
          <mxGeometry relative="1" as="geometry" />
        </mxCell>
        <mxCell id="4IS577gCBCf__Y-hQEl2-63" value="จริง" style="edgeLabel;html=1;align=center;verticalAlign=middle;resizable=0;points=[];" vertex="1" connectable="0" parent="4IS577gCBCf__Y-hQEl2-62">
          <mxGeometry x="-0.44" relative="1" as="geometry">
            <mxPoint as="offset" />
          </mxGeometry>
        </mxCell>
        <mxCell id="4IS577gCBCf__Y-hQEl2-65" style="edgeStyle=orthogonalEdgeStyle;rounded=0;orthogonalLoop=1;jettySize=auto;html=1;exitX=0.5;exitY=1;exitDx=0;exitDy=0;entryX=0.5;entryY=0;entryDx=0;entryDy=0;" edge="1" parent="1" source="4IS577gCBCf__Y-hQEl2-59" target="4IS577gCBCf__Y-hQEl2-64">
          <mxGeometry relative="1" as="geometry">
            <Array as="points">
              <mxPoint x="580" y="1140" />
            </Array>
          </mxGeometry>
        </mxCell>
        <mxCell id="4IS577gCBCf__Y-hQEl2-66" value="เท็จ" style="edgeLabel;html=1;align=center;verticalAlign=middle;resizable=0;points=[];" vertex="1" connectable="0" parent="4IS577gCBCf__Y-hQEl2-65">
          <mxGeometry x="-0.0973" relative="1" as="geometry">
            <mxPoint as="offset" />
          </mxGeometry>
        </mxCell>
        <mxCell id="4IS577gCBCf__Y-hQEl2-59" value="จำนวนเงิน" style="rhombus;whiteSpace=wrap;html=1;" vertex="1" parent="1">
          <mxGeometry x="374" y="1060" width="80" height="80" as="geometry" />
        </mxCell>
        <mxCell id="4IS577gCBCf__Y-hQEl2-75" value="" style="edgeStyle=orthogonalEdgeStyle;rounded=0;orthogonalLoop=1;jettySize=auto;html=1;" edge="1" parent="1" source="4IS577gCBCf__Y-hQEl2-61" target="4IS577gCBCf__Y-hQEl2-68">
          <mxGeometry relative="1" as="geometry" />
        </mxCell>
        <mxCell id="4IS577gCBCf__Y-hQEl2-61" value="จำนวนเงินคงเหลือ" style="rounded=0;whiteSpace=wrap;html=1;" vertex="1" parent="1">
          <mxGeometry x="354" y="1180" width="120" height="60" as="geometry" />
        </mxCell>
        <mxCell id="4IS577gCBCf__Y-hQEl2-67" style="edgeStyle=orthogonalEdgeStyle;rounded=0;orthogonalLoop=1;jettySize=auto;html=1;exitX=0.5;exitY=1;exitDx=0;exitDy=0;entryX=1;entryY=0.5;entryDx=0;entryDy=0;" edge="1" parent="1" source="4IS577gCBCf__Y-hQEl2-64" target="4IS577gCBCf__Y-hQEl2-52">
          <mxGeometry relative="1" as="geometry">
            <Array as="points">
              <mxPoint x="670" y="1240" />
              <mxPoint x="670" y="860" />
            </Array>
          </mxGeometry>
        </mxCell>
        <mxCell id="4IS577gCBCf__Y-hQEl2-64" value="เงินไม่พอเลือกสินค้าใหม่" style="rounded=0;whiteSpace=wrap;html=1;" vertex="1" parent="1">
          <mxGeometry x="520" y="1180" width="120" height="60" as="geometry" />
        </mxCell>
        <mxCell id="4IS577gCBCf__Y-hQEl2-74" value="" style="edgeStyle=orthogonalEdgeStyle;rounded=0;orthogonalLoop=1;jettySize=auto;html=1;" edge="1" parent="1" source="4IS577gCBCf__Y-hQEl2-68" target="4IS577gCBCf__Y-hQEl2-69">
          <mxGeometry relative="1" as="geometry" />
        </mxCell>
        <mxCell id="4IS577gCBCf__Y-hQEl2-68" value="จำนวนเงินในตู้คงเหลือ" style="rounded=0;whiteSpace=wrap;html=1;" vertex="1" parent="1">
          <mxGeometry x="354" y="1270" width="120" height="60" as="geometry" />
        </mxCell>
        <mxCell id="4IS577gCBCf__Y-hQEl2-73" value="" style="edgeStyle=orthogonalEdgeStyle;rounded=0;orthogonalLoop=1;jettySize=auto;html=1;" edge="1" parent="1" source="4IS577gCBCf__Y-hQEl2-69" target="4IS577gCBCf__Y-hQEl2-70">
          <mxGeometry relative="1" as="geometry" />
        </mxCell>
        <mxCell id="4IS577gCBCf__Y-hQEl2-69" value="แสดงรายการสินค้าและยอดรวม" style="rounded=0;whiteSpace=wrap;html=1;" vertex="1" parent="1">
          <mxGeometry x="354" y="1360" width="120" height="60" as="geometry" />
        </mxCell>
        <mxCell id="4IS577gCBCf__Y-hQEl2-72" value="" style="edgeStyle=orthogonalEdgeStyle;rounded=0;orthogonalLoop=1;jettySize=auto;html=1;" edge="1" parent="1" source="4IS577gCBCf__Y-hQEl2-70" target="4IS577gCBCf__Y-hQEl2-71">
          <mxGeometry relative="1" as="geometry" />
        </mxCell>
        <mxCell id="4IS577gCBCf__Y-hQEl2-70" value="สรุปเงินทอนที่ให้ลูกค้า" style="rounded=0;whiteSpace=wrap;html=1;" vertex="1" parent="1">
          <mxGeometry x="354" y="1450" width="120" height="60" as="geometry" />
        </mxCell>
        <mxCell id="4IS577gCBCf__Y-hQEl2-71" value="สิ้นสุด" style="ellipse;whiteSpace=wrap;html=1;" vertex="1" parent="1">
          <mxGeometry x="364" y="1540" width="100" height="60" as="geometry" />
        </mxCell>
        <mxCell id="4IS577gCBCf__Y-hQEl2-79" style="edgeStyle=orthogonalEdgeStyle;rounded=0;orthogonalLoop=1;jettySize=auto;html=1;exitX=0.5;exitY=1;exitDx=0;exitDy=0;entryX=0.5;entryY=0;entryDx=0;entryDy=0;" edge="1" parent="1" source="4IS577gCBCf__Y-hQEl2-76" target="4IS577gCBCf__Y-hQEl2-78">
          <mxGeometry relative="1" as="geometry">
            <Array as="points">
              <mxPoint x="310" y="1010" />
            </Array>
          </mxGeometry>
        </mxCell>
        <mxCell id="4IS577gCBCf__Y-hQEl2-80" value="จริง" style="edgeLabel;html=1;align=center;verticalAlign=middle;resizable=0;points=[];" vertex="1" connectable="0" parent="4IS577gCBCf__Y-hQEl2-79">
          <mxGeometry x="-0.0889" relative="1" as="geometry">
            <mxPoint as="offset" />
          </mxGeometry>
        </mxCell>
        <mxCell id="4IS577gCBCf__Y-hQEl2-83" style="edgeStyle=orthogonalEdgeStyle;rounded=0;orthogonalLoop=1;jettySize=auto;html=1;exitX=0.5;exitY=1;exitDx=0;exitDy=0;entryX=0.5;entryY=0;entryDx=0;entryDy=0;" edge="1" parent="1" source="4IS577gCBCf__Y-hQEl2-76" target="4IS577gCBCf__Y-hQEl2-82">
          <mxGeometry relative="1" as="geometry">
            <Array as="points">
              <mxPoint x="150" y="1010" />
              <mxPoint x="150" y="1010" />
            </Array>
          </mxGeometry>
        </mxCell>
        <mxCell id="4IS577gCBCf__Y-hQEl2-76" value="&lt;font style=&quot;font-size: 8px;&quot;&gt;เมล็ดทานตะวัน&lt;/font&gt;&lt;div&gt;&lt;font style=&quot;font-size: 8px;&quot;&gt;13 บาท&lt;/font&gt;&lt;/div&gt;" style="rhombus;whiteSpace=wrap;html=1;" vertex="1" parent="1">
          <mxGeometry x="190" y="930" width="80" height="80" as="geometry" />
        </mxCell>
        <mxCell id="4IS577gCBCf__Y-hQEl2-81" style="edgeStyle=orthogonalEdgeStyle;rounded=0;orthogonalLoop=1;jettySize=auto;html=1;entryX=0;entryY=0.5;entryDx=0;entryDy=0;" edge="1" parent="1" source="4IS577gCBCf__Y-hQEl2-78" target="4IS577gCBCf__Y-hQEl2-56">
          <mxGeometry relative="1" as="geometry">
            <Array as="points">
              <mxPoint x="360" y="1040" />
              <mxPoint x="360" y="1010" />
            </Array>
          </mxGeometry>
        </mxCell>
        <mxCell id="4IS577gCBCf__Y-hQEl2-78" value="เอา" style="rounded=0;whiteSpace=wrap;html=1;" vertex="1" parent="1">
          <mxGeometry x="270" y="1020" width="80" height="40" as="geometry" />
        </mxCell>
        <mxCell id="4IS577gCBCf__Y-hQEl2-85" style="edgeStyle=orthogonalEdgeStyle;rounded=0;orthogonalLoop=1;jettySize=auto;html=1;exitX=0.5;exitY=1;exitDx=0;exitDy=0;entryX=0.5;entryY=0;entryDx=0;entryDy=0;" edge="1" parent="1" source="4IS577gCBCf__Y-hQEl2-82" target="4IS577gCBCf__Y-hQEl2-84">
          <mxGeometry relative="1" as="geometry">
            <Array as="points">
              <mxPoint x="230" y="1090" />
            </Array>
          </mxGeometry>
        </mxCell>
        <mxCell id="4IS577gCBCf__Y-hQEl2-86" value="จริง" style="edgeLabel;html=1;align=center;verticalAlign=middle;resizable=0;points=[];" vertex="1" connectable="0" parent="4IS577gCBCf__Y-hQEl2-85">
          <mxGeometry x="-0.1333" y="-1" relative="1" as="geometry">
            <mxPoint as="offset" />
          </mxGeometry>
        </mxCell>
        <mxCell id="4IS577gCBCf__Y-hQEl2-89" style="edgeStyle=orthogonalEdgeStyle;rounded=0;orthogonalLoop=1;jettySize=auto;html=1;exitX=0.5;exitY=1;exitDx=0;exitDy=0;entryX=0.5;entryY=0;entryDx=0;entryDy=0;" edge="1" parent="1" source="4IS577gCBCf__Y-hQEl2-82" target="4IS577gCBCf__Y-hQEl2-88">
          <mxGeometry relative="1" as="geometry">
            <Array as="points">
              <mxPoint x="50" y="1090" />
              <mxPoint x="50" y="1090" />
            </Array>
          </mxGeometry>
        </mxCell>
        <mxCell id="4IS577gCBCf__Y-hQEl2-90" value="เท็จ" style="edgeLabel;html=1;align=center;verticalAlign=middle;resizable=0;points=[];" vertex="1" connectable="0" parent="4IS577gCBCf__Y-hQEl2-89">
          <mxGeometry x="-0.0917" y="-2" relative="1" as="geometry">
            <mxPoint as="offset" />
          </mxGeometry>
        </mxCell>
        <mxCell id="4IS577gCBCf__Y-hQEl2-82" value="&lt;span style=&quot;font-size: 8px;&quot;&gt;ถั่วแปบ 20 บาท&lt;/span&gt;" style="rhombus;whiteSpace=wrap;html=1;" vertex="1" parent="1">
          <mxGeometry x="80" y="1010" width="80" height="80" as="geometry" />
        </mxCell>
        <mxCell id="4IS577gCBCf__Y-hQEl2-97" style="edgeStyle=orthogonalEdgeStyle;rounded=0;orthogonalLoop=1;jettySize=auto;html=1;exitX=1;exitY=0.5;exitDx=0;exitDy=0;entryX=0;entryY=0.5;entryDx=0;entryDy=0;" edge="1" parent="1" source="4IS577gCBCf__Y-hQEl2-84" target="4IS577gCBCf__Y-hQEl2-56">
          <mxGeometry relative="1" as="geometry">
            <Array as="points">
              <mxPoint x="360" y="1130" />
              <mxPoint x="360" y="1010" />
            </Array>
          </mxGeometry>
        </mxCell>
        <mxCell id="4IS577gCBCf__Y-hQEl2-84" value="เอา" style="rounded=0;whiteSpace=wrap;html=1;" vertex="1" parent="1">
          <mxGeometry x="190" y="1110" width="80" height="40" as="geometry" />
        </mxCell>
        <mxCell id="4IS577gCBCf__Y-hQEl2-92" style="edgeStyle=orthogonalEdgeStyle;rounded=0;orthogonalLoop=1;jettySize=auto;html=1;exitX=0.5;exitY=1;exitDx=0;exitDy=0;entryX=0.5;entryY=0;entryDx=0;entryDy=0;" edge="1" parent="1" source="4IS577gCBCf__Y-hQEl2-88" target="4IS577gCBCf__Y-hQEl2-91">
          <mxGeometry relative="1" as="geometry">
            <Array as="points">
              <mxPoint x="120" y="1170" />
            </Array>
          </mxGeometry>
        </mxCell>
        <mxCell id="4IS577gCBCf__Y-hQEl2-93" value="จริง" style="edgeLabel;html=1;align=center;verticalAlign=middle;resizable=0;points=[];" vertex="1" connectable="0" parent="4IS577gCBCf__Y-hQEl2-92">
          <mxGeometry x="0.1267" y="1" relative="1" as="geometry">
            <mxPoint as="offset" />
          </mxGeometry>
        </mxCell>
        <mxCell id="4IS577gCBCf__Y-hQEl2-95" style="edgeStyle=orthogonalEdgeStyle;rounded=0;orthogonalLoop=1;jettySize=auto;html=1;exitX=0.5;exitY=1;exitDx=0;exitDy=0;entryX=0.5;entryY=0;entryDx=0;entryDy=0;" edge="1" parent="1" source="4IS577gCBCf__Y-hQEl2-88" target="4IS577gCBCf__Y-hQEl2-94">
          <mxGeometry relative="1" as="geometry">
            <Array as="points">
              <mxPoint x="-30" y="1170" />
            </Array>
          </mxGeometry>
        </mxCell>
        <mxCell id="4IS577gCBCf__Y-hQEl2-96" value="เท็จ" style="edgeLabel;html=1;align=center;verticalAlign=middle;resizable=0;points=[];" vertex="1" connectable="0" parent="4IS577gCBCf__Y-hQEl2-95">
          <mxGeometry x="0.0667" relative="1" as="geometry">
            <mxPoint as="offset" />
          </mxGeometry>
        </mxCell>
        <mxCell id="4IS577gCBCf__Y-hQEl2-88" value="&lt;span style=&quot;font-size: 8px;&quot;&gt;จิ้นส้มหมก 15 บาท&lt;/span&gt;" style="rhombus;whiteSpace=wrap;html=1;" vertex="1" parent="1">
          <mxGeometry y="1090" width="80" height="80" as="geometry" />
        </mxCell>
        <mxCell id="4IS577gCBCf__Y-hQEl2-98" style="edgeStyle=orthogonalEdgeStyle;rounded=0;orthogonalLoop=1;jettySize=auto;html=1;entryX=0;entryY=0.5;entryDx=0;entryDy=0;" edge="1" parent="1" source="4IS577gCBCf__Y-hQEl2-91" target="4IS577gCBCf__Y-hQEl2-56">
          <mxGeometry relative="1" as="geometry">
            <Array as="points">
              <mxPoint x="160" y="1170" />
              <mxPoint x="360" y="1170" />
              <mxPoint x="360" y="1010" />
            </Array>
          </mxGeometry>
        </mxCell>
        <mxCell id="4IS577gCBCf__Y-hQEl2-91" value="เอา" style="rounded=0;whiteSpace=wrap;html=1;" vertex="1" parent="1">
          <mxGeometry x="80" y="1190" width="80" height="40" as="geometry" />
        </mxCell>
        <mxCell id="4IS577gCBCf__Y-hQEl2-99" style="edgeStyle=orthogonalEdgeStyle;rounded=0;orthogonalLoop=1;jettySize=auto;html=1;exitX=0.5;exitY=1;exitDx=0;exitDy=0;entryX=0;entryY=0.5;entryDx=0;entryDy=0;" edge="1" parent="1" source="4IS577gCBCf__Y-hQEl2-94" target="4IS577gCBCf__Y-hQEl2-56">
          <mxGeometry relative="1" as="geometry">
            <Array as="points">
              <mxPoint x="350" y="1230" />
              <mxPoint x="350" y="1010" />
            </Array>
          </mxGeometry>
        </mxCell>
        <mxCell id="4IS577gCBCf__Y-hQEl2-94" value="ไม่เอา" style="rounded=0;whiteSpace=wrap;html=1;" vertex="1" parent="1">
          <mxGeometry x="-70" y="1190" width="80" height="40" as="geometry" />
        </mxCell>
      </root>
    </mxGraphModel>
  </diagram>
</mxfile>
